<svg xmlns="http://www.w3.org/2000/svg" viewBox="0 0 115.1 118.02"><title>icon-play-text</title><g><path d="M7,45.33a2.51,2.51,0,0,1,1.11-1.55,2.34,2.34,0,0,1,1.84-.27,2.33,2.33,0,0,1,1.51,1.12,2.4,2.4,0,0,1,.23,1.89l-.57,2.26,3.45.88-.22.87L6.15,48.46Zm3.85,1a1.49,1.49,0,0,0-.16-1.2,1.47,1.47,0,0,0-1-.71,1.48,1.48,0,0,0-1.18.17,1.56,1.56,0,0,0-.71,1L7.22,47.8l3,.77Z"></path><path d="M10.29,36.72a4.28,4.28,0,0,1,.46-1.64,4.43,4.43,0,0,1,1.05-1.34A4.14,4.14,0,0,1,13.22,33a4.47,4.47,0,0,1,1.62-.18,4.63,4.63,0,0,1,3.37,2,4.22,4.22,0,0,1-3.33,6.56,4.58,4.58,0,0,1-3.58-1.56,4.24,4.24,0,0,1-.82-1.41A4.4,4.4,0,0,1,10.29,36.72Zm2.06-2.28a3.19,3.19,0,0,0-.82,1,3.15,3.15,0,0,0-.38,1.31A3.22,3.22,0,0,0,11.31,38,3.48,3.48,0,0,0,12,39.13a3.75,3.75,0,0,0,2.85,1.25,3.36,3.36,0,0,0,1.66-.5,3.08,3.08,0,0,0,1.16-1.29,3.2,3.2,0,0,0-.23-3.32,3.66,3.66,0,0,0-2.66-1.57,3.27,3.27,0,0,0-1.28.13A3.07,3.07,0,0,0,12.35,34.44Z"></path><path d="M25.9,28.12l-.7.84-4.27-.49-1.06,1.27L22.64,32l-.57.69-6.46-5.37L17.55,25a2.51,2.51,0,0,1,1.65-.92,2.27,2.27,0,0,1,1.77.54,2.48,2.48,0,0,1,.88,1.42,2.27,2.27,0,0,1-.31,1.61Zm-9-.9,2.36,2,1.35-1.63A1.51,1.51,0,0,0,21,26.43,1.57,1.57,0,0,0,19.31,25a1.57,1.57,0,0,0-1.06.61Z"></path><path d="M26.69,16.35l.55.66-2.09,1.77L30,24.57l-.69.58-4.82-5.8-2.12,1.77-.55-.67Z"></path><path d="M30.43,13.9l4.1-2.28.43.76L31.64,14.2,33,16.57l3-1.64.42.75-3,1.65,1.93,3.46-.79.43Z"></path><path d="M40.71,9.31a4.13,4.13,0,0,1,1.5-.81,4.09,4.09,0,0,1,4.5,1.32,4.57,4.57,0,0,1,.94,3.79,4.05,4.05,0,0,1-1,2,4.28,4.28,0,0,1-4.1,1.28,4.16,4.16,0,0,1-1.93-1.05,4.49,4.49,0,0,1-.93-5.22A4.29,4.29,0,0,1,40.71,9.31Zm3.08-.11a3.26,3.26,0,0,0-2.48.77,3.5,3.5,0,0,0-.79,1,3.31,3.31,0,0,0-.37,1.23,3.53,3.53,0,0,0,.15,1.37,3.65,3.65,0,0,0,.94,1.55,3.25,3.25,0,0,0,4.6,0,3.19,3.19,0,0,0,.87-1.66,3.59,3.59,0,0,0-.11-1.81A3.53,3.53,0,0,0,46,10.4a3.12,3.12,0,0,0-1-.84A3,3,0,0,0,43.79,9.2Z"></path><path d="M51.15,6.63,52,6.55l.63,7.52,4.23-.36.08.86L51.85,15Z"></path><path d="M60.64,6.32l.9,0L61,14.76l-.88,0Z"></path><path d="M68.66,7.55a4.06,4.06,0,0,1,1.7.07,4.21,4.21,0,0,1,1.55.71,4.15,4.15,0,0,1,1.64,2.74,4.55,4.55,0,0,1-1.14,3.73,4.24,4.24,0,0,1-7.16-1.73,4.63,4.63,0,0,1,0-2.28A4.28,4.28,0,0,1,66,9.2a4.16,4.16,0,0,1,1.2-1.09A4,4,0,0,1,68.66,7.55ZM71.35,9a3.05,3.05,0,0,0-2.52-.56,3,3,0,0,0-1.19.45,3.16,3.16,0,0,0-.93.89,3.56,3.56,0,0,0-.56,1.2,3.7,3.7,0,0,0,0,1.81,3.23,3.23,0,0,0,.86,1.5,3.29,3.29,0,0,0,3.26.79,3.2,3.2,0,0,0,1.45-.91,3.74,3.74,0,0,0,.91-3A3.39,3.39,0,0,0,72.21,10,3.09,3.09,0,0,0,71.35,9Z"></path><path d="M83.55,12.77l.81.53-1.63,7.31,6-4.46.8.52L82.29,22l-.66-.43Z"></path><path d="M92.75,19.43l.66.6L87.8,26.28l-.67-.6Z"></path><path d="M98.63,25.52A3.92,3.92,0,0,1,99.4,27a3.73,3.73,0,0,1,.15,1.56,3.87,3.87,0,0,1-.48,1.51A4.27,4.27,0,0,1,98,31.35a4.5,4.5,0,0,1-1.51.81,4.33,4.33,0,0,1-1.6.16,4.1,4.1,0,0,1-2.78-1.54l-1.63-2L97,23.52Zm-5.85,4.76a2.94,2.94,0,0,0,2.16,1.15,3.38,3.38,0,0,0,2.44-.81,3.25,3.25,0,0,0,1.29-2.18A3,3,0,0,0,98,26.1l-1.09-1.36-5.21,4.18Z"></path><path d="M103.71,32.82,105.86,37l-.77.4L103.35,34,101,35.2l1.55,3-.77.4-1.55-3-2.84,1.47,1.73,3.38-.76.4-2.16-4.17Z"></path><path d="M108,43.2a4.38,4.38,0,0,1,.89,3.22,4,4,0,0,1-.5,1.54,4.55,4.55,0,0,1-4.9,2.06A4.13,4.13,0,0,1,101.57,49a4.34,4.34,0,0,1-1.15-4.15,4.12,4.12,0,0,1,1.1-1.89,4.68,4.68,0,0,1,3.72-1.27A4,4,0,0,1,108,43.2Zm0,3.07a3.11,3.11,0,0,0-.1-1.32,3.15,3.15,0,0,0-.6-1.18,3.06,3.06,0,0,0-1-.82,3.31,3.31,0,0,0-1.24-.37,3.7,3.7,0,0,0-3,1,3.24,3.24,0,0,0-.88,1.49,3.25,3.25,0,0,0,2.41,4,3.7,3.7,0,0,0,1.81,0,3.46,3.46,0,0,0,1.23-.61A3.14,3.14,0,0,0,108,46.32Z"></path><path d="M16.94,75.92a2.44,2.44,0,0,1,0,1.91,2.26,2.26,0,0,1-1.33,1.29,2.34,2.34,0,0,1-1.87,0,2.48,2.48,0,0,1-1.31-1.39l-.86-2.16-3.3,1.3L7.94,76l7.81-3.11Zm-3.69,1.47a1.57,1.57,0,1,0,2.9-1.19L15.28,74,12.39,75.2Z"></path><path d="M19.29,80.84l.48.76-6.35,4.06,2.29,3.54-.73.46-2.77-4.29Z"></path><path d="M21.86,97.52l.91-2L20,92.66l-2,.83-.66-.68,8.38-3.41.56.58L22.54,98.2Zm-1-5.22,2.29,2.37L25,90.61Z"></path><path d="M29.15,92.82l.89.64-.2,4.45L34,96.31l.86.63-5.17,2-2.21,3-.74-.54,2.21-3Z"></path><path d="M41.52,109.2a3.26,3.26,0,0,1-1.83-1.41,2.58,2.58,0,0,1-.21-2.12l.85.28a1.71,1.71,0,0,0,.16,1.46,2.26,2.26,0,0,0,1.29,1,2.33,2.33,0,0,0,1.52,0,1.3,1.3,0,0,0,.89-.87,1.35,1.35,0,0,0,.06-.63,1.18,1.18,0,0,0-.22-.53,3.12,3.12,0,0,0-.43-.46,3.8,3.8,0,0,0-.57-.42c-.21-.12-.42-.26-.63-.4l-.63-.43a2.74,2.74,0,0,1-.55-.47,3.09,3.09,0,0,1-.4-.55,1.91,1.91,0,0,1-.18-.66,2.72,2.72,0,0,1,.12-.8A2,2,0,0,1,42,100.91a3,3,0,0,1,2.08,0,2.84,2.84,0,0,1,1.72,1.29,2.27,2.27,0,0,1,.17,1.89l-.82-.25a1.46,1.46,0,0,0-.17-1.25,2,2,0,0,0-1.14-.84,2.2,2.2,0,0,0-1.39-.06,1.18,1.18,0,0,0-.79.79,1,1,0,0,0,0,.63,1.22,1.22,0,0,0,.3.53,4.69,4.69,0,0,0,.54.46l.67.44.72.45a4.55,4.55,0,0,1,.64.52,2.85,2.85,0,0,1,.49.61,1.61,1.61,0,0,1,.23.77,2.31,2.31,0,0,1-.13.94,2.15,2.15,0,0,1-1.4,1.37A3.32,3.32,0,0,1,41.52,109.2Z"></path><path d="M55.52,103.25l.91.1-.88,8.35-.91-.09.41-3.92-4.7-.49-.41,3.91-.89-.09.88-8.36.89.1-.38,3.58,4.71.49Z"></path><path d="M62,103.31a4.26,4.26,0,0,1,1.61-.54,4.15,4.15,0,0,1,3.15.84,4.21,4.21,0,0,1,1.06,1.24,4.29,4.29,0,0,1,.54,1.64,4.44,4.44,0,0,1-.27,2.25,4,4,0,0,1-1.32,1.75,4.27,4.27,0,0,1-4.26.55,4.1,4.1,0,0,1-1.72-1.36,4.51,4.51,0,0,1-.83-2.11,4.33,4.33,0,0,1,.11-1.72,4.18,4.18,0,0,1,.71-1.47A4,4,0,0,1,62,103.31Zm3,.42a3.27,3.27,0,0,0-1.32-.09,3.14,3.14,0,0,0-1.25.42,3.36,3.36,0,0,0-.95.85,3.4,3.4,0,0,0-.55,1.17,3.77,3.77,0,0,0,.57,3.06,3.39,3.39,0,0,0,4.68.66,3.1,3.1,0,0,0,1-1.39,3.8,3.8,0,0,0,.2-1.8,3.59,3.59,0,0,0-.42-1.31,3.34,3.34,0,0,0-.83-1,3.16,3.16,0,0,0-1.09-.57Z"></path><path d="M79.44,98l.88-.37.63,8.84-.73.3-4.79-5.55.58,7.32-.73.31-5.85-6.67.9-.38,4.82,5.56L74.58,100l.74-.3,4.76,5.59Z"></path><path d="M92.15,99.11l-.88.66-4-1.47L86,99.3l2.14,2.9-.71.54L82.32,96l2.43-1.8a2.44,2.44,0,0,1,1.82-.52,2.21,2.21,0,0,1,1.59.92A2.3,2.3,0,0,1,88,97.69Zm-8.61-3,1.85,2.45,1.76-1.22a1.61,1.61,0,0,0,.65-1,1.46,1.46,0,0,0-.32-1.17,1.38,1.38,0,0,0-1-.59,1.55,1.55,0,0,0-1.17.34Z"></path><path d="M89.15,90.39l3.16-3.47.64.59-2.55,2.8,1.93,1.76,2.28-2.5.64.58L93,92.66l2.36,2.15L97.89,92l.64.58-3.16,3.47Z"></path><path d="M94.28,84.3l2.49-4,.74.46-2,3.22,2.22,1.39,1.79-2.87.74.46-1.8,2.87,2.69,1.71,2-3.22.73.46-2.49,4Z"></path><path d="M98.23,77.41l.33-.83,7,2.78,1.56-4,.8.32L106,80.46Z"></path></g><path d="M53.25,47.69,66.57,59,53.25,70.2Z"></path></svg>