<svg xmlns="http://www.w3.org/2000/svg" viewBox="0 0 1938.41 1333.75"><path d="M1732,1334c.84-2,1.55-4,2.56-5.89q26.42-49.3,53-98.52c1.74-3.22,1.58-5.52-.17-8.63q-38.56-68.55-76.89-137.25c-.87-1.56-1.67-3.16-2.8-5.31,2.13-.13,3.69-.3,5.25-.3,19.67,0,39.33.09,59-.1,3.64,0,5.56,1,7.27,4.31,13.39,26,27,52,40.56,78,.76,1.47,1.57,2.91,2.75,5.09,1.08-2,1.93-3.47,2.7-5,13.25-25.94,26.54-51.86,39.64-77.87,1.63-3.24,3.36-4.56,7.12-4.52,19.49.21,39,.1,58.49.1h5.31L1799,1334Z" transform="translate(-1.07 -0.25)"/><path d="M1939.48,717.29c-12.36,17.65-23.32,34.78-35.74,50.78q-76.35,98.31-191,147.28a464,464,0,0,1-133.3,34.59c-82.16,8.79-161.68-1.9-237.4-34.92-128.94-56.24-217-151.31-264.7-283.67-4.44-12.33-7.43-25.19-11.38-37.71-1-3.35-.13-5,2.52-7q96.63-71.07,193.2-142.21c15.57-11.41,31.48-22.48,47.95-32.52,50.71-30.89,102.54-30,154.53-3.36,34.42,17.66,62.23,43.23,85.36,74,19.81,26.37,38.62,53.56,59.54,79,46.53,56.61,105.32,95.69,175,118.64,49,16.14,99,27.55,149.79,35.79C1935.07,716.26,1936.33,716.6,1939.48,717.29Z" transform="translate(-1.07 -0.25)"/><path d="M1217.8,900.76A474.23,474.23,0,0,1,1146,930.35a468,468,0,0,1-161.44,22.2A476.46,476.46,0,0,1,541.46,598.23c-2.31-8.7-2.38-8.78,4.79-14q110.26-80.73,220.62-161.36c19.79-14.42,41.23-25.67,65.49-30.77,34-7.16,66.53-2,97.8,12.36,26.67,12.25,49.72,29.63,70.09,50.61a10.64,10.64,0,0,1,2.45,7,537.71,537.71,0,0,0,6.26,97.12,525.26,525.26,0,0,0,203.5,337.54C1214,897.88,1215.62,899.09,1217.8,900.76Z" transform="translate(-1.07 -0.25)"/><path d="M692.93,901.64c-14.71,6.38-28.25,12.71-42.11,18.19-48.06,19-98,29.32-149.57,32.34C277.36,965.24,69.51,811.86,15.71,593.61c-.75-3.07-.39-4.81,2.21-6.7q112.8-82.36,225.56-164.81c19.39-14.12,40.48-25,64.21-30,33.48-7.08,65.52-2.21,96.43,11.73,26.61,12,49.64,29.1,70,49.88a10.48,10.48,0,0,1,2.47,7c-2.31,74.11,10.37,145.59,38.49,214.14,36.48,88.95,93.3,162.44,169.78,220.71C687.18,897.33,689.54,899.09,692.93,901.64Z" transform="translate(-1.07 -0.25)"/><path d="M1056.44,543.63c-31.2-210.53,85.73-432.26,307-513.79,212.07-78.16,438.89,4.44,556.67,177.9-4.68.62-9,1.47-13.31,1.73-35.4,2.16-70.79,4.52-106.21,6.21-51.08,2.44-97.54-11.87-140.56-39.09-21.92-13.86-44.08-27.47-68.27-37.3-31.94-13-65-16.14-99-11.9-17.58,2.19-34.81,5.57-51,13-24.24,11.05-41.32,29.9-55.93,51.4-18.87,27.76-33.63,57.81-48.72,87.67-5.48,10.84-11.15,21.61-16,32.74-7.26,16.64-18.06,30.6-30.66,43.39-32.58,33.09-68.32,62.58-104.93,91-40.93,31.74-82.63,62.5-124,93.67C1060,541.28,1058.45,542.25,1056.44,543.63Z" transform="translate(-1.07 -0.25)"/><path d="M1217.66,52.72a532.88,532.88,0,0,0-109.55,107.91c-6.85-3.75-13.5-7.44-20.2-11-32-17.1-65.94-25.78-102.27-23.76-27.06,1.5-53.7,5.22-77.91,18.79-20.31,11.39-35,28.47-47.86,47.37-19,27.9-33.82,58.09-49,88.12-5.32,10.55-10.94,21-15.59,31.82-7.38,17.19-18.66,31.4-31.63,44.52-32.06,32.42-67.14,61.42-103.08,89.3-41.2,32-83.16,62.91-124.8,94.29-1.54,1.16-3.18,2.19-5,3.43C508,394.77,560,208.22,724.89,89.47,878.63-21.26,1073.66-22.79,1217.66,52.72Z" transform="translate(-1.07 -0.25)"/><path d="M692,52.47a533.39,533.39,0,0,0-109.5,107.64c-2.86-1.59-5.58-3.07-8.26-4.61-24.46-14-50.1-25.06-78.36-28.13-39-4.23-77.27-1.36-112.73,17.41-20.57,10.89-35,28.43-47.87,47.33-17.73,26.1-31.79,54.26-46,82.33C283,286.76,276.47,299,271,311.63c-7.46,17.13-18.56,31.45-31.55,44.57-33.49,33.83-70.2,64-107.75,93.05-40,31-80.82,61-121.28,91.48-1.17.88-2.44,1.63-4.34,2.89q-14.79-103,14.52-201.46c30.21-101.3,87.8-184,172.38-247.24C358.72-29.12,562.37-17.41,692,52.47Z" transform="translate(-1.07 -0.25)"/><path d="M1194.16,1229.49v18.73h-59.94V986.06l60-13.17v120.84c1.17-.53,1.7-.61,2-.92,26.35-28.54,84.26-28.8,115.69,10.23,32.83,40.78,25.87,104.53-15.3,134.8-21.55,15.85-45.67,20.13-71.55,13.08C1213.67,1247.83,1208.86,1244.22,1194.16,1229.49Zm76-65.8c0-22.82-15.72-38.69-38.53-38.79-23.14-.1-39.36,15.78-39.4,38.57s15.85,38.37,38.93,38.41S1270.11,1186.52,1270.17,1163.69Z" transform="translate(-1.07 -0.25)"/><path d="M336.93,1093.67v-15.16h59.83v169.63H337v-19c-2.7,3.16-4.38,5.35-6.29,7.32-11.18,11.46-25.26,16.62-40.83,17.35-45.26,2.13-83.18-29.11-89.71-74-5.05-34.82,3.86-65.22,31.17-88.6,25-21.41,63.52-24.85,90.69-8.64C327.07,1085.6,331.55,1089.64,336.93,1093.67Zm-76,70c.06,22.7,16,38.24,39.08,38.19s39-15.73,38.9-38.38c-.1-22.89-16.17-38.65-39.34-38.57C276.86,1125,260.89,1141,261,1163.67Z" transform="translate(-1.07 -0.25)"/><path d="M438.08,1078.34h59.75v21l1.48.74a7.83,7.83,0,0,1,.72-1.84c12.15-17.6,29.28-25.77,50.32-25.52,8.58.11,17.45.67,25.67,2.91,24.77,6.76,36,25.2,39.75,49.21a127.27,127.27,0,0,1,1.3,18.92c.12,33.32.06,66.64,0,100,0,1.32-.13,2.64-.22,4.38H557v-5.79c0-29.16.11-58.32-.1-87.47a70.78,70.78,0,0,0-2.12-16.78c-2.71-10.61-10.3-16.43-21.26-17.27-22.37-1.72-35.05,10.69-35.46,35.47-.37,22.15-.11,44.31-.12,66.47,0,8.32,0,16.64,0,25.39H438.08Z" transform="translate(-1.07 -0.25)"/><path d="M952.19,1173.35h-127c-2.52,19.52,10,35.58,29.35,37.46a58.21,58.21,0,0,0,19.27-1.13c4.71-1.18,10.06-4.11,12.78-7.93,4-5.6,8.63-6,14.46-5.92,15.49.24,31,.12,46.48.16a8,8,0,0,1,1.51.46c-.56,2.13-1,4.33-1.72,6.43-7.27,20.6-21.53,34.87-41.49,42.72-34.09,13.39-68.14,12.31-100.23-5.65s-43-48.09-41.12-83.36c1.47-28.3,12.51-52,36.63-68.2,18.22-12.25,38.78-16.22,60.38-15.79,17.76.34,34.75,3.8,50.13,13.13,24.65,14.94,35.85,38,39.2,65.68C951.7,1158.45,951.74,1165.59,952.19,1173.35Zm-57-34.77c-1.53-16.71-18.71-28.32-38.76-26.71-16,1.29-30.85,14.46-29.91,26.71Z" transform="translate(-1.07 -0.25)"/><path d="M1476.81,1078.29h59.9c.1,1.79.26,3.39.26,5,0,32.32.16,64.64-.1,97a105.92,105.92,0,0,1-2.46,22.76c-5.07,22.1-19,36.92-40.3,43.85-31.42,10.23-63.33,10.4-94.77.23-27.28-8.83-41.95-29-42.95-57.1-1.31-36.61-.44-73.29-.49-109.94a8,8,0,0,1,.44-1.66H1416V1084c0,28.32-.08,56.64.07,85a79.89,79.89,0,0,0,1.65,16.34c2.74,12.76,10.07,19.14,23,20.5a53,53,0,0,0,11.47,0q21.16-2.41,23.71-24.61a129.4,129.4,0,0,0,.83-14.46c.08-27.32,0-54.64,0-82Z" transform="translate(-1.07 -0.25)"/><path d="M757.17,1078v49.81H723.24v120.24H663.07V1127.93H643.49v-49.81H662.8v-50.73H723V1078Z" transform="translate(-1.07 -0.25)"/><path d="M172.85,1194.81c.1,1.06.27,2,.27,2.93,0,14.33,0,28.66,0,43,0,2.58-.52,4.18-3.19,5.35-52.74,23.06-119.85-4.44-130.42-65.45-8.45-48.74,20.31-97,75.59-106.54,18.43-3.2,36.47-1.82,53.76,6.07,3.11,1.43,4.37,3.2,4.31,6.77-.23,13.66-.08,27.32-.1,41,0,1.44-.16,2.87-.29,5.06-13-9-26.38-14-41.74-10a39.78,39.78,0,0,0-22.39,15c-11.37,15.12-10.88,38.2,1.08,52.52C124.06,1207.58,145,1209.07,172.85,1194.81Z" transform="translate(-1.07 -0.25)"/><path d="M1568.58,1078.34h60.21v27.48c22.37-25.79,38.76-32.94,67.26-29.44v56.14c-6-1.38-11.73-3.36-17.54-3.82a79.5,79.5,0,0,0-19.86.73c-15.34,2.7-24.14,12.77-27.47,27.52a98.64,98.64,0,0,0-2.29,20.28c-.29,21.67-.13,43.34-.15,65v5.88h-60.16Z" transform="translate(-1.07 -0.25)"/><path d="M1107,1076.21v55.68c-7.94-1.27-15.72-3.4-23.53-3.51a59.18,59.18,0,0,0-21,3.38c-14.57,5.4-19.76,18.09-21.5,32.27-1,8.4-1,17-1.09,25.43-.15,19.48,0,39,0,58.75H980v-169.8h59.88v26.79C1055.79,1080.29,1079.35,1074.11,1107,1076.21Z" transform="translate(-1.07 -0.25)"/></svg>