<svg xmlns="http://www.w3.org/2000/svg" viewBox="0 0 169.5 57.06"><path d="M65.49,48.07A2.33,2.33,0,0,0,65,48a1.61,1.61,0,0,0-1.69,1.74V50H63a.58.58,0,1,0,0,1.15h.32v3.27a.67.67,0,0,0,.66.66.67.67,0,0,0,.67-.66V51.17h.5a.58.58,0,1,0,0-1.15h-.5v-.25c0-.47.24-.72.62-.72h.16a.48.48,0,0,0,.51-.5.51.51,0,0,0-.4-.49"/><path d="M70.4,50a.66.66,0,0,0-.66.66v2.8A1.46,1.46,0,0,1,68.6,54a.8.8,0,0,1-.92-.92V50.61a.66.66,0,1,0-1.31,0v3A1.43,1.43,0,0,0,68,55.15a2.35,2.35,0,0,0,1.75-.74v0a.67.67,0,0,0,.68.67.66.66,0,0,0,.65-.67V50.61A.67.67,0,0,0,70.4,50"/><path d="M74.83,49.93a.84.84,0,0,0-.33.08,2.08,2.08,0,0,0-.82.7v-.1a.67.67,0,1,0-1.33,0v3.82a.66.66,0,1,0,1.32,0V51.72a1.67,1.67,0,0,1,1.08-.55.65.65,0,0,0,.62-.65.55.55,0,0,0-.55-.59"/><path d="M79.16,49.9a2.33,2.33,0,0,0-1.74.75v0a.67.67,0,0,0-.67-.67.66.66,0,0,0-.66.67v3.83a.66.66,0,1,0,1.32,0V51.66a1.43,1.43,0,0,1,1.14-.59.81.81,0,0,1,.92.93v2.44a.66.66,0,1,0,1.32,0V51.49a1.46,1.46,0,0,0-1.63-1.59"/><path d="M82.75,50a.66.66,0,0,0-.66.66v3.83a.66.66,0,0,0,.65.66.67.67,0,0,0,.67-.66V50.61a.67.67,0,0,0-.66-.66"/><path d="M82.74,47.63a.79.79,0,1,0,0,1.57.79.79,0,1,0,0-1.57"/><path d="M87,54l-.22,0c-.29,0-.45-.24-.45-.55V51.17h.52a.58.58,0,0,0,0-1.15h-.52v-.78a.66.66,0,1,0-1.32,0V50h-.32a.58.58,0,1,0,0,1.15H85v2.61a1.25,1.25,0,0,0,1.42,1.37,2.08,2.08,0,0,0,.68-.1A.56.56,0,0,0,87,54"/><path d="M92.24,50a.66.66,0,0,0-.65.66v2.8a1.47,1.47,0,0,1-1.14.57.8.8,0,0,1-.92-.92V50.61a.66.66,0,0,0-1.32,0v3a1.43,1.43,0,0,0,1.62,1.57,2.35,2.35,0,0,0,1.75-.74v0a.67.67,0,0,0,.67.67.65.65,0,0,0,.65-.67V50.61a.67.67,0,0,0-.66-.66"/><path d="M96.67,49.93a.88.88,0,0,0-.33.08,2.08,2.08,0,0,0-.82.7v-.1a.66.66,0,1,0-1.32,0v3.82a.66.66,0,1,0,1.31,0V51.72a1.67,1.67,0,0,1,1.08-.55.64.64,0,0,0,.62-.65.54.54,0,0,0-.55-.59"/><path d="M99,52.05a1.21,1.21,0,0,1,1.24-1.11,1.16,1.16,0,0,1,1.23,1.11Zm1.24-2.15a2.63,2.63,0,1,0,.08,5.25,3.34,3.34,0,0,0,1.65-.41.57.57,0,0,0,.28-.46.53.53,0,0,0-.52-.52.51.51,0,0,0-.25.06,2.1,2.1,0,0,1-1,.29A1.35,1.35,0,0,1,99,53h2.94c.5,0,.78-.19.78-.63A2.42,2.42,0,0,0,100.21,49.9Z"/><path d="M111.22,54,111,54c-.29,0-.45-.24-.45-.55V51.17h.52a.58.58,0,0,0,0-1.15h-.52v-.78a.66.66,0,1,0-1.32,0V50h-.32a.58.58,0,1,0,0,1.15h.32v2.61a1.25,1.25,0,0,0,1.42,1.37,2.12,2.12,0,0,0,.68-.1.56.56,0,0,0-.11-1.09"/><path d="M114.79,54a1.47,1.47,0,1,1,1.28-1.46A1.31,1.31,0,0,1,114.79,54m0-4.08a2.63,2.63,0,1,0,2.65,2.62,2.53,2.53,0,0,0-2.65-2.62"/><path d="M122.19,50a.65.65,0,0,0-.61.4l-1.2,3.2-1.2-3.2a.63.63,0,0,0-.6-.4.64.64,0,0,0-.64.65.61.61,0,0,0,0,.24l1.72,4.26-.19.42a.66.66,0,0,1-.68.37h-.06a.57.57,0,0,0-.56.56.58.58,0,0,0,.59.59h.14a1.82,1.82,0,0,0,1.82-1.21l2-5a.66.66,0,0,0,0-.25.64.64,0,0,0-.65-.65"/><path d="M125.66,51.91c-.56-.12-1-.23-1-.54s.31-.47.79-.47a2.23,2.23,0,0,1,1.14.32.52.52,0,0,0,.25.07.51.51,0,0,0,.51-.51.52.52,0,0,0-.26-.44,3.12,3.12,0,0,0-1.65-.44c-1.32,0-2,.73-2,1.57,0,1.19,1.11,1.4,2,1.57.57.11,1,.24,1,.59s-.27.51-.84.51a2.69,2.69,0,0,1-1.35-.43.68.68,0,0,0-.28-.07.55.55,0,0,0-.55.55.54.54,0,0,0,.28.47,3.45,3.45,0,0,0,1.84.49c1.39,0,2.17-.68,2.17-1.6,0-1.25-1.15-1.48-2-1.64"/><path d="M136.33,51.07a1.23,1.23,0,0,1,.79.26.55.55,0,0,0,.34.11.59.59,0,0,0,.33-1.08,2.41,2.41,0,0,0-1.52-.46,2.63,2.63,0,1,0,0,5.25,2.42,2.42,0,0,0,1.52-.47.58.58,0,0,0,.26-.48.59.59,0,0,0-.6-.59.58.58,0,0,0-.34.11,1.19,1.19,0,0,1-.78.26,1.46,1.46,0,0,1,0-2.91"/><path d="M143.08,50a.66.66,0,0,0-.65.66v2.8a1.49,1.49,0,0,1-1.14.57.81.81,0,0,1-.93-.92V50.61a.66.66,0,1,0-1.31,0v3a1.43,1.43,0,0,0,1.61,1.57,2.39,2.39,0,0,0,1.76-.74v0a.67.67,0,0,0,.67.67.66.66,0,0,0,.65-.67V50.61a.67.67,0,0,0-.66-.66"/><path d="M147.49,54a1.48,1.48,0,0,1-1.13-.56V51.65a1.47,1.47,0,0,1,1.13-.58,1.47,1.47,0,0,1,0,2.91m.42-4.08a1.92,1.92,0,0,0-1.55.76V48.71a.66.66,0,1,0-1.31,0v5.73a.66.66,0,0,0,1.32,0v-.05a2,2,0,0,0,1.54.74c1.26,0,2.21-.95,2.21-2.62s-.94-2.63-2.21-2.63"/><path d="M153.56,54a1.47,1.47,0,0,1-1.13-.56V51.65a1.45,1.45,0,0,1,1.13-.58,1.47,1.47,0,0,1,0,2.91M154,49.9a1.92,1.92,0,0,0-1.54.76V48.71a.67.67,0,0,0-.65-.67.66.66,0,0,0-.66.67v5.73a.65.65,0,0,0,.66.66.66.66,0,0,0,.66-.64v-.05a2,2,0,0,0,1.53.74c1.27,0,2.22-.95,2.22-2.62s-.94-2.63-2.22-2.63"/><path d="M157.84,47.63a.79.79,0,1,0,0,1.57.79.79,0,0,0,0-1.57"/><path d="M157.85,50a.66.66,0,0,0-.67.66v3.83a.66.66,0,0,0,1.32,0V50.61a.66.66,0,0,0-.65-.66"/><path d="M160.84,52.05a1.21,1.21,0,0,1,1.23-1.11,1.17,1.17,0,0,1,1.24,1.11Zm1.23-2.15a2.63,2.63,0,1,0,.09,5.25,3.27,3.27,0,0,0,1.64-.41.55.55,0,0,0,.28-.46.52.52,0,0,0-.51-.52.49.49,0,0,0-.25.06,2.13,2.13,0,0,1-1,.29A1.35,1.35,0,0,1,160.86,53h2.93c.51,0,.79-.19.79-.63A2.42,2.42,0,0,0,162.07,49.9Z"/><path d="M167.49,51.91c-.56-.12-1-.23-1-.54s.31-.47.79-.47a2.29,2.29,0,0,1,1.14.32.49.49,0,0,0,.25.07.51.51,0,0,0,.5-.51.5.5,0,0,0-.26-.44,3.06,3.06,0,0,0-1.64-.44c-1.32,0-2.06.73-2.06,1.57,0,1.19,1.11,1.4,2,1.57.57.11,1,.24,1,.59s-.27.51-.84.51a2.69,2.69,0,0,1-1.36-.43.64.64,0,0,0-.28-.07.55.55,0,0,0-.55.55.56.56,0,0,0,.28.47,3.48,3.48,0,0,0,1.85.49c1.38,0,2.16-.68,2.16-1.6,0-1.25-1.15-1.48-2-1.64"/><path d="M98.16,32.58l-6.93-5.72,5.16-4.38c1.28-1.07,1.93-2,1.93-2.81s-.57-1.9-1.7-3.31-2.12-2.11-3-2.11a5.47,5.47,0,0,0-3.12,1.41l-.63.42c-.62.52-1.57,1.4-2.84,2.65s-2.21,2.14-2.84,2.66V4.88a13.26,13.26,0,0,0,0-1.46,2.93,2.93,0,0,0-.94-2.29A5.49,5.49,0,0,0,79.67.25c-2.22,0-3.57.46-4.06,1.4A4.83,4.83,0,0,0,75.17,3a15.56,15.56,0,0,0-.08,1.8V36a15.56,15.56,0,0,0,.08,1.8,4.83,4.83,0,0,0,.44,1.38c.49.93,1.82,1.4,4,1.4s3.56-.45,4-1.35a4.32,4.32,0,0,0,.5-1.38,16.07,16.07,0,0,0,.07-1.8v-4q1.3,1,3.81,3.52T91.7,39l.52.37a6.25,6.25,0,0,0,3.18,1.51q1.35,0,3.12-2.19a6.39,6.39,0,0,0,1.62-3.39,2.12,2.12,0,0,0-.34-1.09,8.25,8.25,0,0,0-1.64-1.67"/><path d="M111.26,14.1a5.54,5.54,0,0,0-3.55-.89c-2.22,0-3.57.45-4.06,1.36a4.83,4.83,0,0,0-.44,1.38,15.36,15.36,0,0,0-.08,1.79V36a15.34,15.34,0,0,0,.08,1.82,4.82,4.82,0,0,0,.44,1.36c.49.94,1.82,1.4,4,1.4s3.56-.45,4-1.35a4.32,4.32,0,0,0,.5-1.38,16.07,16.07,0,0,0,.07-1.8V17.85a14.68,14.68,0,0,0,0-1.51,2.84,2.84,0,0,0-.93-2.24"/><path d="M132.71,30a4.14,4.14,0,0,1-3.2,1.41,4.74,4.74,0,0,1-4.64-4.53,4.68,4.68,0,0,1,1.25-3.15,4.22,4.22,0,0,1,3.34-1.44,4.09,4.09,0,0,1,3.3,1.46A4.81,4.81,0,0,1,134,26.93a4.53,4.53,0,0,1-1.28,3.1m10-28.27a2.17,2.17,0,0,0-1.38-1.1,11.31,11.31,0,0,0-5.26,0,2.23,2.23,0,0,0-1.38,1.07,4.12,4.12,0,0,0-.47,1.35,15.56,15.56,0,0,0-.08,1.8V15.82a7.3,7.3,0,0,0-6-2.61q-4.64,0-8.51,4.11a13.72,13.72,0,0,0,0,19.09q3.86,4.1,8.54,4.09a7.67,7.67,0,0,0,6.1-2.5c.27,1.7,1.62,2.55,4,2.55s3.88-.47,4.4-1.41a3.57,3.57,0,0,0,.5-1.32,15.56,15.56,0,0,0,.08-1.8V4.93a15.24,15.24,0,0,0-.08-1.79,4.42,4.42,0,0,0-.47-1.38"/><path d="M168.49,27.51A5.92,5.92,0,0,0,166,25a19.2,19.2,0,0,0-6.66-2c-2.37-.31-3.55-1-3.55-2,0-.76,1-1.15,3.08-1.15a8.67,8.67,0,0,1,3.67.79,7.05,7.05,0,0,0,2.32.78q1.19,0,2.34-1.83a6.12,6.12,0,0,0,1.14-3.07c0-.83-.6-1.53-1.82-2.08a18.35,18.35,0,0,0-7.6-1.77q-11.31,0-11.3,8.23a10.61,10.61,0,0,0,1,4.76,6.88,6.88,0,0,0,2.5,2.94A17,17,0,0,0,157.58,31c2.32.31,3.49.8,3.49,1.46,0,.83-1.06,1.25-3.18,1.25a8.05,8.05,0,0,1-4-1.28,7.58,7.58,0,0,0-3.46-1.27,2,2,0,0,0-1.85.88q-2,2.76-2,4.12a2.18,2.18,0,0,0,1,2,17.91,17.91,0,0,0,9.66,2.91,19.23,19.23,0,0,0,8.36-1.61,6.65,6.65,0,0,0,2.84-2.84,9.75,9.75,0,0,0,1-4.61,9.11,9.11,0,0,0-1-4.5"/><path d="M107.69,0a4.88,4.88,0,1,0,4.88,4.88A4.88,4.88,0,0,0,107.69,0"/><path d="M15.21,13.26a7.72,7.72,0,0,0-6.1,3.18V4.93A13.39,13.39,0,0,0,9,3.14a4,4,0,0,0-.49-1.38Q7.87.35,4.58.35C2.36.35,1,.82.52,1.76A4.17,4.17,0,0,0,.08,3.08,15.56,15.56,0,0,0,0,4.88V36a15.34,15.34,0,0,0,.08,1.82A4.82,4.82,0,0,0,.52,39.2c.49.94,1.82,1.4,4,1.4s3.56-.45,4-1.35A4,4,0,0,0,9,37.87a13.56,13.56,0,0,0,.08-1.8V26a4,4,0,0,1,1.62-2.52A5.05,5.05,0,0,1,14,22.33,4.13,4.13,0,0,1,17,23.52a4.51,4.51,0,0,1,1.2,3.34V36a17.29,17.29,0,0,0,.07,1.87,4.29,4.29,0,0,0,.5,1.41q.78,1.35,4,1.35c2.22,0,3.55-.45,4-1.35a4.27,4.27,0,0,0,.49-1.38,15.56,15.56,0,0,0,.08-1.8V26.91a14.19,14.19,0,0,0-3.46-9.69,11,11,0,0,0-8.67-4"/><path d="M39.55,14.1A5.52,5.52,0,0,0,36,13.21c-2.23,0-3.58.45-4.06,1.36A4.58,4.58,0,0,0,31.5,16a15.36,15.36,0,0,0-.08,1.79V36a15.34,15.34,0,0,0,.08,1.82A4.57,4.57,0,0,0,32,39.2c.48.94,1.82,1.4,4,1.4s3.55-.45,4-1.35a4.09,4.09,0,0,0,.5-1.38,15.56,15.56,0,0,0,.08-1.8V17.85c0-.66,0-1.17,0-1.51a2.88,2.88,0,0,0-.94-2.24"/><path d="M61.47,29.67A4.35,4.35,0,0,1,58.24,31a4,4,0,0,1-3.12-1.38,4.45,4.45,0,0,1-1.22-3,4.68,4.68,0,0,1,1.19-3.08,4,4,0,0,1,3.21-1.4,4.18,4.18,0,0,1,3.25,1.38,4.51,4.51,0,0,1,1.25,3.1,4.26,4.26,0,0,1-1.33,3.07M67.9,17.22q-3.8-4-8-4t-6.22,2.71a2.85,2.85,0,0,0-1.12-2.06,6.86,6.86,0,0,0-3.73-.7c-1.84,0-3,.47-3.49,1.41a4.24,4.24,0,0,0-.44,1.3,14.72,14.72,0,0,0-.08,1.77V51.33a14.72,14.72,0,0,0,.08,1.77,3.9,3.9,0,0,0,.47,1.3,2.18,2.18,0,0,0,1.35,1,8.6,8.6,0,0,0,2.58.32,8.21,8.21,0,0,0,2.55-.32,2.16,2.16,0,0,0,1.33-1.06,4.27,4.27,0,0,0,.47-1.33,14.72,14.72,0,0,0,.08-1.77V37.48c1.28,1.6,3.35,2.39,6.2,2.39s5.52-1.33,8-4a13.34,13.34,0,0,0,0-18.64"/><path d="M36,0a4.88,4.88,0,1,0,4.88,4.88A4.88,4.88,0,0,0,36,0"/></svg>