<svg xmlns="http://www.w3.org/2000/svg" viewBox="0 0 154.06 31.93"><title>logo-webprofits-portfolio</title><path d="M28.4,7.47c-1.32,0-2.19,1.27-2.48,2.76l3.24-.09c1.18,0,1.37-.24,1.37-.61a2,2,0,0,0-1.94-2.06h-.23m3.89,3.42H25.83c0,.45-.07.9-.07,1.35,0,2.64,1.37,3.94,3.47,3.94a4.1,4.1,0,0,0,3.07-1.58c.07-.12.35.07.35.4a.26.26,0,0,1-.07.19,5,5,0,0,1-9.21-2.95c0-2.85,1.91-5.52,5-5.52a4.18,4.18,0,0,1,4.32,3.84c0,.21-.17.33-.42.33" style="fill:#eb4647"/><path d="M39.44,7.59C38.29,7.59,37,8.68,37,9.48v5.45c0,.87,1.7,1.91,2.71,1.91,2.22,0,3-2.38,3-4.62,0-2.69-1.06-4.62-3.28-4.62m.57,10c-2,0-2.19-.8-3.44-.8a1.23,1.23,0,0,0-1.18.75c0,.1-.17.14-.28.14s-.31-.07-.31-.19c0-.5.09-1.42.09-2.38V3.63c0-1.25-.19-1.51-1.3-1.63-.12,0-.19-.12-.19-.28s.07-.33.19-.33A8.74,8.74,0,0,0,36.54.19.45.45,0,0,1,36.87,0c.19,0,.33.07.33.19-.07,1-.19,2.9-.19,4.13V7.85a4,4,0,0,1,2.71-1.11,5.06,5.06,0,0,1,5.38,4.72,3.64,3.64,0,0,1,0,.66A5.48,5.48,0,0,1,40,17.61" style="fill:#eb4647"/><path d="M52.4,8A3,3,0,0,0,50,9.31v5.78c0,1.06,1.11,1.77,2.31,1.77,2.36,0,3.3-2,3.3-4.65S54.47,8,52.4,8m0,9.58A5,5,0,0,1,50,17.07V20.7c0,1.51.23,1.84,1.6,2,.1,0,.19.14.19.33s-.09.33-.19.33c-1,0-1.53-.14-2.64-.14s-1.68.14-2.67.14c-.09,0-.19-.16-.19-.33s.09-.33.19-.33c1.37-.16,1.6-.49,1.6-2V10.25c0-1.25-.19-1.51-1.32-1.63-.1,0-.19-.14-.19-.31s.09-.28.19-.28A7.72,7.72,0,0,0,49.41,6.8c.09,0,.17-.19.33-.19s.33.09.33.19L50,8.29a5,5,0,0,1,3-1.58c3.37,0,5,2.5,5,5.52a5.3,5.3,0,0,1-5.21,5.39h-.38" style="fill:#eb4647"/><path d="M66.77,9c-.94,0-1.06-.61-1.72-.61a2.08,2.08,0,0,0-1.58.9v5.31c0,1.51.5,1.82,1.87,2,.12,0,.19.14.19.33s-.07.33-.19.33c-1,0-1.79-.14-2.93-.14s-1.67.14-2.67.14c-.09,0-.19-.14-.19-.33s.09-.31.19-.33c1.39-.17,1.6-.47,1.6-2V10.25c0-1.25-.19-1.51-1.32-1.63-.09,0-.19-.14-.19-.31S59.93,8,60,8A7.93,7.93,0,0,0,62.9,6.8c.07,0,.14-.19.33-.19s.33.09.33.19l-.1,1.49a4.58,4.58,0,0,1,3-1.58,1.26,1.26,0,0,1,1.32,1.18A1.06,1.06,0,0,1,66.8,9h0" style="fill:#eb4647"/><path d="M74.09,7.48C72,7.48,71,9.6,71,12.22s1,4.65,3.11,4.65,3.07-2,3.07-4.62-1-4.74-3.11-4.74m0,10.14a5.22,5.22,0,0,1-5.45-5c0-.14,0-.27,0-.41a5.5,5.5,0,0,1,11,0,5.2,5.2,0,0,1-5,5.38,3.38,3.38,0,0,1-.45,0" style="fill:#eb4647"/><path d="M93.27,17.25c-1,0-1.51-.14-2.64-.14s-1.56.14-2.55.14c-.12,0-.19-.14-.19-.33s.07-.33.19-.33c1.37-.17,1.49-.47,1.49-2V10.25c0-1.27-.19-1.51-1.3-1.63-.12,0-.19-.14-.19-.31s.07-.28.19-.28a8.24,8.24,0,0,0,3-1.22c.07,0,.14-.19.33-.19s.33.1.33.19c-.09,1-.19,2.88-.19,4.1v3.68c0,1.53.21,1.84,1.58,2,.12,0,.19.14.19.33s-.07.33-.19.33M90.46,2.63c-1.06,0-1-1.11-2.93-1.11S84.77,2.6,84.77,5.06v9.53c0,1.53.12,1.84,1.51,2,.09,0,.16.14.16.33s-.07.33-.16.33c-1,0-1.44-.14-2.57-.14s-1.65.14-2.64.14c-.12,0-.19-.14-.19-.33s.07-.33.19-.33c1.37-.17,1.58-.47,1.58-2V9c0-.19-.09-.33-.28-.33H81.16c-.14,0-.24-.19-.24-.31A.36.36,0,0,1,81.13,8c.61-.16,1.51-.38,1.51-.66C82.64,4.07,85.07.11,89,.11c1.34,0,2.64.8,2.64,1.58s-.4.94-1.16.94" style="fill:#eb4647"/><path d="M101.63,8.51l-3.47-.09v5.66c0,1.49.47,2.22,1.58,2.22a3,3,0,0,0,1.74-.45c.12-.07.28.17.28.38a.34.34,0,0,1-.12.26,4,4,0,0,1-2.74,1,2.8,2.8,0,0,1-3-2.63,3.53,3.53,0,0,1,0-.46V8.67a.3.3,0,0,0-.26-.33h-.92A.3.3,0,0,1,94.51,8a.5.5,0,0,1,.21-.35,9.67,9.67,0,0,0,2.85-2.74.39.39,0,0,1,.33-.19c.16,0,.33.09.33.19l-.07,2.31h3.47c.19,0,.31.28.31.64s-.12.64-.31.64" style="fill:#eb4647"/><path d="M106.89,17.62c-1,0-2.24-.42-3-.42-.09-.83-.31-1.89-.42-2.5,0-.09.16-.19.33-.19s.31.07.33.19a3.22,3.22,0,0,0,2.74,2.17,1.69,1.69,0,0,0,1.86-1.5,1.93,1.93,0,0,0,0-.34c0-2.31-5.1-1.82-5.1-5.28,0-1.7,1.72-3,3.61-3,1,0,2,.33,2.52.33,0,.83.07,1.65.14,2.36,0,.09-.14.19-.33.19s-.31-.07-.33-.19a2,2,0,0,0-1.89-1.93c-1.27,0-1.84.59-1.84,1.6,0,2.19,5.19,2.29,5.19,5.14a3.6,3.6,0,0,1-3.82,3.4h-.05" style="fill:#eb4647"/><path d="M17.06,17.35a1.89,1.89,0,0,0,.11.25h.5c.18,0,.26-.07.35-.27h0l3.85-8.4a2.78,2.78,0,0,1,1.54-1.68V7c0-.15-.08-.26-.16-.26-.7,0-1.12.12-1.58.12-.8,0-1-.12-1.82-.12-.08,0-.15.11-.16.26h0v.3c.39.08.77.23.77.82a4.61,4.61,0,0,1-.36,1.55L18.16,14h0l-2.4-7.2h-.7l-2.53,7h0L10.74,9.25A4.6,4.6,0,0,1,10.41,8a.7.7,0,0,1,.66-.74h.09V7h0c0-.15-.06-.27-.15-.27-.8,0-1.14.11-2,.11a6.43,6.43,0,0,1-1.33-.08A7.37,7.37,0,0,0,3,5.44C1.38,5.6-.09,6.72,0,7.65c.08.77.6,1.09,1.5,1C2.78,8.53,2.62,7.19,4.89,7a3.46,3.46,0,0,1,1.83.26A3.07,3.07,0,0,1,8.16,9.08l3.38,8.27h0c.09.2.17.27.35.27h.51a.8.8,0,0,0,.11-.25L14.8,10.7h0Z" style="fill:#eb4647"/><path d="M90.16,31.91a1,1,0,0,1-.43,0,.45.45,0,0,1-.34-.26,2.79,2.79,0,0,1,.1-.39l.26-.87.35-1.1.35-1.11.28-.89.14-.43q1-3.41,2.32-6.69l2.55-6.56a7.37,7.37,0,0,1-.79.16l-.75.15a10.47,10.47,0,0,0-1.53.49,10.76,10.76,0,0,0-1.4.7l.46,0a1.69,1.69,0,0,1,.45,0,.66.66,0,0,1,.36.16.64.64,0,0,1,.17.47l-.23.22c-.21.05-.43.09-.65.12a2.89,2.89,0,0,1-.72,0,1.3,1.3,0,0,1-.62-.23.85.85,0,0,1-.16-1.2.8.8,0,0,1,.23-.22,5.74,5.74,0,0,1,1.2-.69,12.32,12.32,0,0,1,1.4-.5l1-.28c.44-.11.94-.2,1.5-.29a14.47,14.47,0,0,1,1.73-.17,11.73,11.73,0,0,1,1.78.07,5.49,5.49,0,0,1,1.6.43,3.5,3.5,0,0,1,1.23.89,2.75,2.75,0,0,1,.66,1.46,3.32,3.32,0,0,1-.22,1.84A7.32,7.32,0,0,1,101.35,19a12.65,12.65,0,0,1-1.67,1.76,17.46,17.46,0,0,1-2,1.51,18.76,18.76,0,0,1-2,1.14,7.92,7.92,0,0,1-1.66.64,1.63,1.63,0,0,1-.82,0,1.06,1.06,0,0,0-.4-.08v.1c-.32,1-.65,2-1,3l-1,3-.22.84-.16.56a.3.3,0,0,1-.11.27l-.16.1Zm3.36-8.86a7.24,7.24,0,0,0,1.36-.53,17.14,17.14,0,0,0,1.84-1c.67-.41,1.34-.86,2-1.35a14.57,14.57,0,0,0,1.78-1.54,7.18,7.18,0,0,0,1.22-1.58,2.12,2.12,0,0,0,.33-1.47,1.84,1.84,0,0,0-.85-1.25,4.73,4.73,0,0,0-1.58-.68,8.37,8.37,0,0,0-1.8-.23,6.43,6.43,0,0,0-1.51.13h-.1l.18.24a.67.67,0,0,1,.13.21,1.92,1.92,0,0,1-.17.78c-.14.41-.32.92-.55,1.51s-.48,1.25-.76,2-.55,1.33-.8,2L93.58,22a10.45,10.45,0,0,0-.36,1.12.54.54,0,0,0,.31,0Z"/><path d="M102.66,25.37a3.55,3.55,0,0,1-.06-.8c0-.31.06-.62.11-.93a7.32,7.32,0,0,1,.24-.92q.15-.42.33-.81a2.78,2.78,0,0,1,.74-1.68,3.13,3.13,0,0,1,1.56-.93,1.89,1.89,0,0,1,1,0,1.8,1.8,0,0,1,1.14,1A3.15,3.15,0,0,1,108,21a3.63,3.63,0,0,1,.07,1.43c.38-.24.76-.49,1.12-.76s.7-.53,1-.78.59-.48.83-.69l.57-.51h.09a.37.37,0,0,1,.21,0,.69.69,0,0,1,.2.13.33.33,0,0,1,.12.17.15.15,0,0,1,0,.16,4,4,0,0,1-.66.77,11.54,11.54,0,0,1-1.06.91,15.77,15.77,0,0,1-1.31.92,12.4,12.4,0,0,1-1.42.81,5.68,5.68,0,0,1-1.27,2,3.75,3.75,0,0,1-1.8,1.08,1.55,1.55,0,0,1-1.37-.17A1.74,1.74,0,0,1,102.66,25.37Zm1-1.8a6.17,6.17,0,0,0-.23.87,2.32,2.32,0,0,0,0,.83.68.68,0,0,0,.25.41.86.86,0,0,0,.59,0,2.84,2.84,0,0,0,1.19-.62,4.55,4.55,0,0,0,.93-1.08l-.19.07H106l-.56.11a2.22,2.22,0,0,1-.63,0,2.08,2.08,0,0,1-.63-.19,1.57,1.57,0,0,1-.49-.4Zm.81-1.95a.67.67,0,0,1-.08.37c-.07.17-.16.38-.28.62a1.18,1.18,0,0,0,.47.72,1.6,1.6,0,0,0,1.18,0,5.76,5.76,0,0,0,.59-.18l.61-.25a5.22,5.22,0,0,0,.28-1.1,2.41,2.41,0,0,0,0-1,1.25,1.25,0,0,0-.43-.71,1.08,1.08,0,0,0-1-.12,2.55,2.55,0,0,0-.88.42,2,2,0,0,0-.67.8.76.76,0,0,1,.25.43Z"/><path d="M110.48,24.46a1.19,1.19,0,0,1-.32-.1.45.45,0,0,1-.24-.28,1.8,1.8,0,0,1,.08-.61c.08-.31.19-.67.32-1.08s.29-.85.47-1.31.36-.89.52-1.29a8.67,8.67,0,0,1,.48-1,2,2,0,0,1,.37-.54.47.47,0,0,1,.39.14.67.67,0,0,1,.27.37c-.16.44-.32.83-.47,1.16a1.63,1.63,0,0,0-.2.61,2.51,2.51,0,0,0,.26-.31l.59-.77.77-1,.8-1c.26-.31.49-.57.69-.79a1.4,1.4,0,0,1,.45-.36.54.54,0,0,1,.46.13.71.71,0,0,1,.32.44,1.34,1.34,0,0,1,0,.4,1.41,1.41,0,0,1-.08.56l-.1.58-.09.47a1.23,1.23,0,0,1,.31.24.65.65,0,0,1,.22.3c0,.15,0,.25-.19.29a.75.75,0,0,1-.76-.21,1.65,1.65,0,0,1-.4-.72V18.6a.74.74,0,0,1,0-.21c-.46.43-.89.85-1.3,1.26s-.78.82-1.15,1.26a12.93,12.93,0,0,0-1,1.42,13.73,13.73,0,0,0-.85,1.72.61.61,0,0,1-.15.24l-.2.21Z"/><path d="M116.55,25.2a5,5,0,0,1-.06-2.31,19.49,19.49,0,0,1,.74-2.69c.33-.91.69-1.8,1.07-2.66l1-2.21.16-.34-2.36.57-.64.18-.64.18-.25-.19a.61.61,0,0,1-.18-.31.56.56,0,0,1,.06-.42l.88-.23.9-.22.88-.21.88-.23a4.89,4.89,0,0,1,.58-.19l.54-.16q.3-.49.6-1.11l.58-1.21.51-1.08a4.57,4.57,0,0,1,.42-.71h.1a.38.38,0,0,1,.35.14.69.69,0,0,1,.23.33,1,1,0,0,1-.08.6,7,7,0,0,1-.36.9c-.14.33-.3.66-.48,1a6.65,6.65,0,0,1-.46.81l.27-.06a5.86,5.86,0,0,1,.63-.12,3.21,3.21,0,0,1,.62,0,1.2,1.2,0,0,1,.5.14.57.57,0,0,1,.27.39.74.74,0,0,1,0,.21c0,.09,0,.15-.08.16h-.19a1.42,1.42,0,0,0-.58,0c-.27,0-.55.09-.85.16l-.61.16-.43.11h-.19l-.2.41q-.27.45-.66,1.23c-.26.52-.52,1.1-.79,1.74s-.52,1.33-.77,2-.45,1.33-.63,2a14.09,14.09,0,0,0-.36,1.83,3.77,3.77,0,0,0,0,1.38.77.77,0,0,0,.14.25.21.21,0,0,1,0,.28.16.16,0,0,1-.12.09.87.87,0,0,1-.65-.1A.82.82,0,0,1,116.55,25.2Z"/><path d="M123.71,12.93l.09-.2a.64.64,0,0,0,.06-.18c.18-.4.35-.87.53-1.41a14.3,14.3,0,0,1,.66-1.56,6.48,6.48,0,0,1,.9-1.35,2.41,2.41,0,0,1,1.24-.76,1.4,1.4,0,0,1,.5,0,1.74,1.74,0,0,1,.51.13,1.3,1.3,0,0,1,.43.29,1,1,0,0,1,.27.45V9a.55.55,0,0,1-.51-.2,1.84,1.84,0,0,1-.23-.56h-.25a2.33,2.33,0,0,0-1.07.62A5.36,5.36,0,0,0,126,10a11.86,11.86,0,0,0-.61,1.3c-.17.45-.31.86-.43,1.22h0l.88-.23.88-.21.4-.08h.42a.79.79,0,0,1,.37.1.49.49,0,0,1,.24.31.23.23,0,0,1,0,.2.46.46,0,0,1-.13.18,2.11,2.11,0,0,1-.55.19l-1.07.29-1.14.31-.76.22c-.14.37-.34.93-.62,1.69s-.57,1.61-.89,2.55-.65,1.94-1,3-.64,2-.9,2.88-.49,1.68-.66,2.35a6.16,6.16,0,0,0-.23,1.34,1.37,1.37,0,0,1-.57,0,.56.56,0,0,1-.42-.37,2.79,2.79,0,0,1,.09-1c.12-.53.28-1.18.49-1.93s.47-1.58.77-2.48.61-1.8.91-2.71.62-1.79.92-2.64l.81-2.23c-.44.11-.9.21-1.36.3l-1.31.29a.33.33,0,0,1-.31-.09.68.68,0,0,1-.18-.29.42.42,0,0,1,.08-.33.51.51,0,0,1,.19-.2c.28-.11.74-.25,1.37-.43Z"/><path d="M126,19.71a3.55,3.55,0,0,1-.06-.8c0-.31.06-.62.11-.93a7.32,7.32,0,0,1,.24-.92q.15-.42.33-.81a2.78,2.78,0,0,1,.74-1.68,3.06,3.06,0,0,1,1.56-.93,1.89,1.89,0,0,1,1,0,1.8,1.8,0,0,1,1.14,1,3.15,3.15,0,0,1,.23.65,3.63,3.63,0,0,1,.07,1.43c.38-.24.76-.49,1.12-.76l1-.78c.32-.25.59-.48.83-.69l.57-.51H135a.37.37,0,0,1,.21,0,.69.69,0,0,1,.2.13.33.33,0,0,1,.12.17.15.15,0,0,1,0,.16,4,4,0,0,1-.66.77,11.54,11.54,0,0,1-1.06.91,15.77,15.77,0,0,1-1.31.92,12.4,12.4,0,0,1-1.42.81,5.68,5.68,0,0,1-1.27,2,3.75,3.75,0,0,1-1.8,1.08,1.55,1.55,0,0,1-1.37-.17A1.74,1.74,0,0,1,126,19.71Zm1-1.8a6.17,6.17,0,0,0-.23.87,2.32,2.32,0,0,0,0,.83A.68.68,0,0,0,127,20a.86.86,0,0,0,.59,0,2.84,2.84,0,0,0,1.19-.62,4.55,4.55,0,0,0,.93-1.08l-.19.07h-.2l-.56.11a2.22,2.22,0,0,1-.63,0,2.08,2.08,0,0,1-.63-.19,1.57,1.57,0,0,1-.49-.4Zm.82-1.95a.67.67,0,0,1-.08.37c-.07.17-.16.38-.28.62a1.18,1.18,0,0,0,.47.72,1.6,1.6,0,0,0,1.18,0,5.76,5.76,0,0,0,.59-.18l.61-.25a5.22,5.22,0,0,0,.28-1.1,2.41,2.41,0,0,0,0-1,1.25,1.25,0,0,0-.43-.71,1.08,1.08,0,0,0-1-.12,2.55,2.55,0,0,0-.88.42,2,2,0,0,0-.67.8.77.77,0,0,1,.24.44Z"/><path d="M135.66,18.9a1.48,1.48,0,0,1-1.09-.1,1.38,1.38,0,0,1-.6-.9,4.4,4.4,0,0,1,.09-1.84,20.58,20.58,0,0,1,.76-2.54c.34-.92.74-1.88,1.19-2.88s.92-2,1.38-2.88.92-1.75,1.34-2.5l1-1.74a.64.64,0,0,1,.42.13.54.54,0,0,1,.26.35,1.87,1.87,0,0,1-.24.63l-.68,1.43-1,2-1.1,2.31c-.37.79-.73,1.59-1.08,2.38s-.65,1.53-.91,2.22-.42,1.2-.59,1.81a2.68,2.68,0,0,0-.11,1.16.3.3,0,0,0,.24.35.28.28,0,0,0,.22,0,1.55,1.55,0,0,0,.63-.4,9.5,9.5,0,0,0,.83-.85c.3-.34.62-.72.94-1.14l1-1.25.93-1.19.79-1a.88.88,0,0,1,.43.14.55.55,0,0,1,.3.35,1.89,1.89,0,0,1-.27.66,6.93,6.93,0,0,1-.84,1.15c-.34.44-.73.9-1.15,1.38s-.83.92-1.25,1.33a12.78,12.78,0,0,1-1.11,1A2.23,2.23,0,0,1,135.66,18.9Z"/><path d="M140.46,17.74a1.85,1.85,0,0,1-.47,0,1.54,1.54,0,0,1-.51-.1,1.33,1.33,0,0,1-.43-.28,1,1,0,0,1-.25-.47,1.84,1.84,0,0,1,0-.74,8.68,8.68,0,0,1,.27-1q.18-.56.42-1.14c.16-.39.33-.77.49-1.13l.48-1a6.83,6.83,0,0,1,.37-.66h.06a.64.64,0,0,1,.43.09.5.5,0,0,1,.31.34c-.24.55-.44,1-.61,1.45s-.34.85-.53,1.31-.33.9-.47,1.29a6.65,6.65,0,0,0-.25,1c0,.25,0,.36.14.33a3.51,3.51,0,0,0,1.44-.76,11.32,11.32,0,0,0,1.39-1.38,21,21,0,0,0,1.36-1.74l1.32-1.84h.07a.5.5,0,0,1,.39.11.56.56,0,0,1,.29.35,1.72,1.72,0,0,1-.25.64,10.34,10.34,0,0,1-.77,1.1c-.32.42-.69.86-1.12,1.33s-.85.9-1.28,1.31a12.17,12.17,0,0,1-1.25,1A3.15,3.15,0,0,1,140.46,17.74Zm1.36-7.43a.44.44,0,0,1-.33-.08.3.3,0,0,1-.12-.35c0-.15.11-.3.17-.45s.18-.41.28-.62.2-.41.31-.6a2.49,2.49,0,0,1,.25-.38.64.64,0,0,1,.41.07.46.46,0,0,1,.29.3.59.59,0,0,1-.08.41c-.08.2-.19.42-.31.65a4.91,4.91,0,0,1-.38.64,2.06,2.06,0,0,1-.29.37Z"/><path d="M144.54,15.25a3.55,3.55,0,0,1-.06-.8c0-.31.06-.62.11-.93a7.32,7.32,0,0,1,.24-.92q.15-.42.33-.81a2.78,2.78,0,0,1,.74-1.68,3.06,3.06,0,0,1,1.56-.93,1.89,1.89,0,0,1,1,0,1.8,1.8,0,0,1,1.14,1,3.15,3.15,0,0,1,.23.65,3.63,3.63,0,0,1,.07,1.43c.38-.24.76-.49,1.12-.76l1-.78c.32-.25.59-.48.83-.69l.57-.51h.09a.37.37,0,0,1,.21,0,.69.69,0,0,1,.2.13.33.33,0,0,1,.12.17.15.15,0,0,1,0,.16,4,4,0,0,1-.66.77,11.54,11.54,0,0,1-1.06.91,15.77,15.77,0,0,1-1.31.92,12.4,12.4,0,0,1-1.42.81,5.68,5.68,0,0,1-1.27,2,3.75,3.75,0,0,1-1.8,1.08,1.55,1.55,0,0,1-1.37-.17A1.74,1.74,0,0,1,144.54,15.25Zm1-1.8a6.17,6.17,0,0,0-.23.87,2.32,2.32,0,0,0,0,.83.68.68,0,0,0,.25.41.86.86,0,0,0,.59,0,2.84,2.84,0,0,0,1.19-.62,4.55,4.55,0,0,0,.93-1.08l-.19.07h-.2l-.56.11a2.22,2.22,0,0,1-.63,0,2.08,2.08,0,0,1-.63-.19,1.55,1.55,0,0,1-.49-.43Zm.82-1.95a.67.67,0,0,1-.08.37c-.07.17-.16.38-.28.62a1.18,1.18,0,0,0,.47.72,1.6,1.6,0,0,0,1.18,0,5.76,5.76,0,0,0,.59-.18l.61-.25a5.22,5.22,0,0,0,.28-1.1,2.41,2.41,0,0,0,0-1,1.25,1.25,0,0,0-.43-.71,1.08,1.08,0,0,0-1-.12,2.55,2.55,0,0,0-.88.42,2,2,0,0,0-.67.8.83.83,0,0,1,.24.4Z"/></svg>