<svg xmlns="http://www.w3.org/2000/svg" viewBox="0 0 95.32 41.94"><path d="M17.94,11.68a6.44,6.44,0,1,1-1.87-9.14L12.66,8l6.4-3.69A8.8,8.8,0,0,0,14.71.82a13.24,13.24,0,0,0-9.16,0A8.8,8.8,0,0,0,1.81,3.47a7.12,7.12,0,0,0,0,9.06,8.8,8.8,0,0,0,3.74,2.65,13.27,13.27,0,0,0,4.58.81,13.72,13.72,0,0,0,3-.33,10,10,0,0,0,5.1-3Z"/><path d="M44.93,2.73a2.28,2.28,0,0,0-1,.22L40.21,4.69a2.34,2.34,0,0,0-2.69-1.93,2.54,2.54,0,0,0-.61.19L32.36,5.07h3.2V15.6h4.68V6.24a1.17,1.17,0,1,1,2.34,0V15.6h4.68V5.07a2.34,2.34,0,0,0-2.34-2.34"/><path d="M74.27,2.73a2.43,2.43,0,0,0-1,.22L69.55,4.69a2.34,2.34,0,0,0-2.31-2,2.28,2.28,0,0,0-1,.22L61.69,5h3.2V15.6h4.67V6.24a1.17,1.17,0,1,1,2.34,0h0V15.6h4.68V5.07a2.34,2.34,0,0,0-2.34-2.34h0"/><path d="M57.36,15a1.46,1.46,0,0,1-1.79-1L53.3,5.53a1.46,1.46,0,0,1,2.83-.75l2.27,8.47a1.46,1.46,0,0,1-1,1.79M55.89,2.76a6.63,6.63,0,1,0,6.63,6.63,6.63,6.63,0,0,0-6.63-6.63h0"/><path d="M29.26,15.6h4.68l-2.69-10a3.8,3.8,0,0,0-3.67-2.82,3.87,3.87,0,0,0-1.3.23l-5.8,2.11h6l1,3.81A5.64,5.64,0,0,0,23.8,7.51a6,6,0,0,0-2.9.74,4.46,4.46,0,0,0-1.64,1.56,3.64,3.64,0,0,0,0,3.79,4.46,4.46,0,0,0,1.64,1.56,6,6,0,0,0,7.79-1.77Zm-1.19-3.9a2.34,2.34,0,1,1-2.34-2.34h0a2.34,2.34,0,0,1,2.34,2.34"/><path d="M77.78,41.8V40.65h-3l2.89-3.93v-1h-4.6V36.8H76l-2.89,3.93V41.8Zm-7.22,0V35.68H69.25v3.84l-2.84-3.84H65.07V41.8h1.31v-4l2.92,4Zm-9.84-2.18H58.78L59.73,37Zm2.22,2.18-2.36-6.12H59L56.53,41.8H58l.38-1H61l.37,1Z"/><path d="M46.17,40.91a2.79,2.79,0,0,0,2.24,1c1.65,0,2.17-.94,2.17-1.72,0-1.25-1.09-1.57-2.07-1.84s-1.6-.44-1.6-1.17.62-1.13,1.43-1.13a2.21,2.21,0,0,1,1.76.77l.35-.38a2.64,2.64,0,0,0-2.08-.86c-1.11,0-2,.63-2,1.63s1,1.41,2,1.67,1.68.47,1.68,1.33c0,.53-.35,1.23-1.61,1.23a2.47,2.47,0,0,1-1.91-.9Zm-6.39.89h3.89v-.47H40.31V38.9H43.6v-.48H40.31V36.15h3.36v-.47H39.78Zm-4.87.11a2.75,2.75,0,0,0,2.25-1.09l-.44-.28a2.22,2.22,0,0,1-1.81.9,2.7,2.7,0,0,1,0-5.39,2.23,2.23,0,0,1,1.81.89l.44-.28a2.81,2.81,0,0,0-2.25-1.08,3.17,3.17,0,0,0,0,6.33m-6.47-.11H29V35.68h-.52Zm-5.66,0h.65l2.51-6.12h-.61L23.1,41.22l-2.22-5.54h-.61Zm-5.21-4.33a1.28,1.28,0,0,1-1.24,1.32H14.49V36.15h1.72a1.28,1.28,0,0,1,1.36,1.2v.12m0,4.33h.63l-1.77-2.57a1.69,1.69,0,0,0,1.7-1.68v-.08a1.72,1.72,0,0,0-1.66-1.79H14V41.8h.52V39.27h1.35Zm-10.33,0h3.88v-.47H7.78V38.9h3.3v-.48H7.78V36.15h3.36v-.47H7.26ZM0,40.94a2.79,2.79,0,0,0,2.24,1c1.66,0,2.18-.94,2.18-1.72,0-1.25-1.09-1.57-2.08-1.84-.83-.23-1.6-.44-1.6-1.17s.62-1.13,1.44-1.13a2.2,2.2,0,0,1,1.75.77l.35-.38a2.64,2.64,0,0,0-2.08-.86c-1.11,0-2,.63-2,1.63s1,1.41,2,1.67,1.68.47,1.68,1.33c0,.53-.36,1.23-1.62,1.23a2.47,2.47,0,0,1-1.91-.9Z"/><path d="M90.91,31.07a2.79,2.79,0,0,0,2.24,1c1.65,0,2.17-.94,2.17-1.73,0-1.24-1.09-1.56-2.07-1.83s-1.6-.44-1.6-1.17.62-1.13,1.43-1.13a2.21,2.21,0,0,1,1.76.77l.35-.38a2.61,2.61,0,0,0-2.08-.87,1.79,1.79,0,0,0-2,1.56.22.22,0,0,0,0,.08c0,1.13,1,1.4,2,1.67s1.68.47,1.68,1.33c0,.53-.35,1.22-1.61,1.22a2.46,2.46,0,0,1-1.91-.89Zm-6.9,0a2.79,2.79,0,0,0,2.24,1c1.65,0,2.18-.94,2.18-1.73,0-1.24-1.1-1.56-2.08-1.83s-1.6-.44-1.6-1.17.62-1.13,1.44-1.13a2.2,2.2,0,0,1,1.75.77l.35-.38a2.61,2.61,0,0,0-2.08-.87,1.79,1.79,0,0,0-2,1.56.22.22,0,0,0,0,.08c0,1.13,1,1.4,2,1.67s1.68.47,1.68,1.33c0,.53-.36,1.22-1.62,1.22a2.5,2.5,0,0,1-1.91-.89Zm-6.4.86h3.88v-.48H78.13V29h3.3v-.48h-3.3V26.28h3.36V25.8H77.61Zm-3.6,0h.51V25.8H74V31L70.16,25.8h-.53v6.13h.52V26.64Zm-8,0h.52V25.8H66Zm-7.24-.86a2.79,2.79,0,0,0,2.24,1c1.65,0,2.17-.94,2.17-1.73,0-1.24-1.09-1.56-2.07-1.83s-1.6-.44-1.6-1.17.62-1.13,1.43-1.13A2.21,2.21,0,0,1,62.7,27l.35-.38A2.61,2.61,0,0,0,61,25.73a1.79,1.79,0,0,0-2,1.56.22.22,0,0,0,0,.08c0,1.13,1,1.4,2,1.67s1.68.47,1.68,1.33c0,.53-.35,1.22-1.61,1.22a2.46,2.46,0,0,1-1.91-.89Zm-7.53-1.49a2.39,2.39,0,1,0,4.78,0V25.8h-.53v3.77a1.86,1.86,0,0,1-3.71.27,1.22,1.22,0,0,1,0-.27V25.8h-.54Zm-6.67,1.87V29h2a1.2,1.2,0,0,1,1.29,1.09v.12a1.16,1.16,0,0,1-1.08,1.22H44.57Zm0-2.9V26.28H46.5a1.11,1.11,0,0,1,1.2,1v.15a1.08,1.08,0,0,1-1,1.13H44.57ZM44,31.93h2.57a1.58,1.58,0,0,0,1.75-1.39,2.17,2.17,0,0,0,0-.26,1.54,1.54,0,0,0-1.19-1.51,1.4,1.4,0,0,0,1.07-1.4,1.54,1.54,0,0,0-1.48-1.58H44Zm-7.54,0H37V25.8h-.53V31L32.66,25.8h-.53v6.13h.52V26.64Zm-7.79-3.06a2.47,2.47,0,1,1,0-.22,1.62,1.62,0,0,1,0,.22m-5.4,0a3.09,3.09,0,1,0,0-.17,1,1,0,0,0,0,.17m-3.37,3.06h.51V25.8h-.52V31L16.1,25.8h-.53v6.13h.52V26.64Zm-9.68-5.61L11.73,30h-3Zm2.25,5.61h.59L10.6,25.8H10L7.44,31.93H8l.61-1.51H11.9ZM3.2,32A2.75,2.75,0,0,0,5.45,31L5,30.67a2.23,2.23,0,0,1-1.81.89,2.69,2.69,0,0,1,0-5.38h0A2.23,2.23,0,0,1,5,27.07l.44-.28A2.75,2.75,0,0,0,3.2,25.7,3.17,3.17,0,0,0,3.2,32"/></svg>