<svg xmlns="http://www.w3.org/2000/svg" viewBox="0 0 377.65 121.69"><path d="M123.79,51.87c-8,8-24,24-24,24s.21,12.47-2.57,17.93c-5.87,11.64-26.72,27.88-26.72,27.88L67,117.8s10.84-12.12,9.58-20.16L70.37,57.3C64.14,63.8,57.69,71,50.88,78.63c.38,4.93.18,9.92-2.06,14.33-5.73,11.24-26,27.74-26,27.74l-3.46-3.76s6.49-6.44,8.16-10.71a19.16,19.16,0,0,0,1.08-5.87c.56-8-6.76-45.28-12.17-73.09-1.79-9.15-5.6-9.38-8.37-8.62-2.44.7-7.39,2.46-7.39,2.46L0,17.58l39.11-16L49.52,67.25l19.4-19.13L65.84,28.53c-.49-3.23-1.7-6.75-5.9-7.36-3.75-.51-10.35,2.61-10.35,2.61l-1.7-4.22,40-18.14,10.57,64S112,51.59,112.94,50.52c2.48-2.73,2.08-8.17-.24-19.69-.68-5.44-1.58-11.34-5.19-12.48-4-1.24-10.84,1.82-10.84,1.82l-1.45-4.08L131.6,0s5.48,22.79,4.89,22.79c1.61,11.67-.28,14.26-2.94,18.21s-9.76,10.87-9.76,10.87m20.15,38.92c-.87-4.69.55-9.38,2.37-13.41,3.22-7.23,13.25-8.86,20.54-9.52,5.26-.49,10,9.79,10,9.79l-8.56,5s-2.06-5.19-3.92-7a3.87,3.87,0,0,0-5.59-.09,14.77,14.77,0,0,0-3.74,9.88c.26,2.51,4.21,3.62,4.14,3.56,4.08,2.57,9.25,3.71,11.41,8,1.17,2.27-.84,9.13-2.72,11.8-2.44,3.34-11.84,10.71-20,9.57-9.94-1.26-12.26-12.41-12.26-12.41L145.85,100s3.83,13.29,8.47,10.53c2.5-1.46,4.38-5.85,3.33-9.18-.67-2.22-4.45-3.07-7.91-5.23-2.25-1.42-5.25-2.47-5.8-5.28m44.11-31.26c.89-2.28-1-6.85-1-6.85l9.68-4.58a8.34,8.34,0,0,1,3.17,7.6c-.4,4.31-2.26,13.09-2.26,13.09h13.6s2.94-10.81,5.12-18.53A11.35,11.35,0,0,1,221.6,43c3.86-2.53,17.6-14.33,26.22-8.58,2.66,1.78,5.35,4.82,4.86,8a82.24,82.24,0,0,1-4.29,17.3c-3.39.23-10.26,0-10.26,0s4.76-12.07,1.37-16.19c-4-4.89-8.61,1.24-8.61,1.24-3.36,2.12-7.87,24-7.87,24h23.76s-7.23,27.59-10.23,37c-.86,2.68-.62,3.4.59,4.54,1.93,1.84,6.24-1.86,6.24-1.86l2.14,3.53a89.31,89.31,0,0,1-9.89,6.73c-6,3.17-12.36-8.85-11.84-10.7,2.85-9.88,5.06-18.06,7.47-28.11a6.09,6.09,0,0,0-.48-4.32c-1.15-2.15-9.36-1.56-9.36-1.56l-12.88,44.2h-11.1L210.11,74h-15s-6.12,21.33-8.28,31.81a3.72,3.72,0,0,0,1.36,3.9c2,1.5,7.9-2.92,7.9-2.92l1.65,3.5s-11.9,9.3-15.28,8.77c-2.52-.37-7.37-5.38-8.09-7.65C173.66,108.71,183.6,74,183.6,74h-5.9l.68-5.24h7.05a80,80,0,0,1,2.62-9.26M305.85,42c4.08-11,24.49-9.61,24.49-9.61l.31,3.47s-11,.51-13.57,8c-6.88,19.8-11.23,40.17-17.39,60.61-.42,1.29-.46,3,.47,3.79,3.49,3.14,9.77-4,9.77-4s3.71-20,8.8-28.83c3.19-5.55,10.26-8,16.44-9.41,4-1,10.56,2.91,10.56,2.91s2.76-10.2,6.12-21c.74-2.34,1.41-7.53,4.54-9.57a36.72,36.72,0,0,1,20.86-6.09l.4,3.24s-11,1.73-13.26,8.43a579.47,579.47,0,0,0-16.8,59.41c-.28,2-.75,6,1.29,6.52,3.15.9,10.57-4.94,10.57-4.94l2.13,4.37s-8.53,5.6-12.82,8c-5.47,3.25-12.5-5.14-12.5-5.14s-11.19,6.3-14.47,5.62c-5.42-1.19-10.22-8.09-10.22-8.09s-3.86,2.92-14.06,7.61c-3.8,1.77-9.86-2.56-10.69-6.75-.58-3,.49-5.93,1.29-8.85,3.53-12.4,6.62-24.27,10.36-36.63,2.19-7.13,4.56-15.41,7.38-23M259.66,73.8c6.86-3,13.72-7.53,21.41-6.73,4.7.43,6.13,4,6.7,8.61s-.95,8.68-2.9,12.51c-6.43,12.63-23,6.07-23,6.07s-2.66,6.17-2.07,9.94c.44,2.66,4.3,6.67,6.69,6.78,4.65.22,12.84-5.57,12.84-5.57l2.48,3.55s-10.61,6.68-16.63,10c-4.79,2.66-13.81-5.43-16.92-9.32-3.38-4.09.48-14.52,2.62-21.45,1.6-5.34,3.27-12,8.8-14.39m-147.12-.25c6.89-3,14-6.13,21.67-5.37,4.66.5,6.17,3.06,6.73,7.72.56,4.51-1,8.72-2.93,12.51-5.85,11.44-22.81,7.86-22.81,7.86s-2.43,3.91-1.82,7.7c.46,2.64,3.15,5.93,5.53,6.07,4.69.28,12.17-5.59,12.17-5.59l2.5,3.64s-10.44,7-16.62,10c-6.6,3.19-12.89-3.86-16.06-7.75-3.36-4.09.95-15,3.09-21.94,1.6-5.3,3.06-12.41,8.55-14.83m209.52,28.1c-1.85,9.36,11.43,10.34,14.28,2.14s4.17-15.44,6.36-23.88c.59-2.22-1.69-6.55-5.13-7.47a6.74,6.74,0,0,0-8.64,4.88c-1.09,3.78-1.56,4.31-2.36,8.07-1.47,6.6-3,8.87-4.51,16.26M126.24,88.94a34.47,34.47,0,0,0,3.11-9.89c1-6.12-6.89-7.69-9.57-.7-2.32,6-2.08,3.19-2.29,9.57-.18,5.11,7.47,4,8.75,1m147.38-1.21a34.69,34.69,0,0,0,3.13-9.86c1-6.1-6.93-7.72-9.61-.67-2.32,6-2,3.19-2.29,9.55-.16,5.09,7.48,4,8.77,1"/></svg>